ffmpeg started on 2026-04-02 at 13:25:40
Report written to "D:\Convert\FFMetrics\reports\ssim_report-6.txt"
Log level: 32
Command line:
ffmpeg -hide_banner -nostdin -r 24/1 -i "F:\\Convert\\files\\Dungeon_ni_Deai_wo_Motomeru_no_wa_Machigatteiru_no_Darou_ka_V_[01]_[AniLibria]_[WEBRip_1080p]_HEVC(310).mkv" -r 24/1 -i "F:\\Convert\\files\\Dungeon_ni_Deai_wo_Motomeru_no_wa_Machigatteiru_no_Darou_ka_V_[01]_[AniLibria]_[WEBRip_1080p].mkv" -lavfi "[0:v]settb=AVTB,setpts=PTS-STARTPTS,format=pix_fmts=yuv420p10le,fps=24/1,scale=1920:1080:flags=lanczos:param0=3:out_range=limited:out_chroma_loc=left,setsar=1/1,setdar=(1920/1080)*(1/1)[main];[1:v]settb=AVTB,setpts=PTS-STARTPTS,format=pix_fmts=yuv420p,fps=24/1,scale=1920:1080:flags=lanczos:param0=3:out_range=limited:out_chroma_loc=left,setsar=1/1,setdar=(1920/1080)*(1/1)[ref];[main][ref]ssim=eof_action=endall:stats_file='D\\:/Convert/FFMetrics/logs/ssim_logfile-6.txt'" -f null -
Input #0, matroska,webm, from 'F:\Convert\files\Dungeon_ni_Deai_wo_Motomeru_no_wa_Machigatteiru_no_Darou_ka_V_[01]_[AniLibria]_[WEBRip_1080p]_HEVC(310).mkv':
  Metadata:
    ENCODER         : Lavf61.7.100
  Duration: 00:23:42.42, start: -0.021000, bitrate: 999 kb/s
  Stream #0:0(jpn): Video: hevc (Main 10), yuv420p10le(tv, progressive), 1920x1080 [SAR 1:1 DAR 16:9], 24 fps, 24 tbr, 1k tbn (default) (forced)
      Metadata:
        ENCODER         : Lavc61.19.100 libx265
        BPS             : 752850
        DURATION        : 00:23:42.416666666
        NUMBER_OF_FRAMES: 34138
        NUMBER_OF_BYTES : 133858236
        _STATISTICS_WRITING_APP: mkvpropedit v94.0 ('Initiate') 64-bit
        _STATISTICS_WRITING_DATE_UTC: 2026-04-02 10:09:54
        _STATISTICS_TAGS: BPS DURATION NUMBER_OF_FRAMES NUMBER_OF_BYTES
  Stream #0:1(rus): Audio: aac (LC), 48000 Hz, stereo, fltp (default) (forced)
      Metadata:
        title           : AniLibria
        ENCODER         : Lavc61.19.100 aac
        BPS             : 194199
        DURATION        : 00:23:42.399000000
        NUMBER_OF_FRAMES: 66676
        NUMBER_OF_BYTES : 34528622
        _STATISTICS_WRITING_APP: mkvpropedit v94.0 ('Initiate') 64-bit
        _STATISTICS_WRITING_DATE_UTC: 2026-04-02 10:09:54
        _STATISTICS_TAGS: BPS DURATION NUMBER_OF_FRAMES NUMBER_OF_BYTES
  Stream #0:2(rus): Subtitle: ass (ssa) (default) (forced)
      Metadata:
        title           : Надписи
        BPS             : 142
        DURATION        : 00:22:42.440000000
        NUMBER_OF_FRAMES: 88
        NUMBER_OF_BYTES : 24274
        _STATISTICS_WRITING_APP: mkvpropedit v94.0 ('Initiate') 64-bit
        _STATISTICS_WRITING_DATE_UTC: 2026-04-02 10:09:54
        _STATISTICS_TAGS: BPS DURATION NUMBER_OF_FRAMES NUMBER_OF_BYTES
  Stream #0:3(rus): Subtitle: ass (ssa)
      Metadata:
        title           : Полные
        BPS             : 303
        DURATION        : 00:23:34.040000000
        NUMBER_OF_FRAMES: 463
        NUMBER_OF_BYTES : 53572
        _STATISTICS_WRITING_APP: mkvpropedit v94.0 ('Initiate') 64-bit
        _STATISTICS_WRITING_DATE_UTC: 2026-04-02 10:09:54
        _STATISTICS_TAGS: BPS DURATION NUMBER_OF_FRAMES NUMBER_OF_BYTES
  Stream #0:4: Attachment: ttf
      Metadata:
        filename        : 10352_0.TTF
        mimetype        : application/x-truetype-font
  Stream #0:5: Attachment: ttf
      Metadata:
        filename        : ARIAL.TTF
        mimetype        : application/x-truetype-font
  Stream #0:6: Attachment: ttf
      Metadata:
        filename        : ARIAL_4.TTF
        mimetype        : application/x-truetype-font
  Stream #0:7: Attachment: ttf
      Metadata:
        filename        : ARIALBD.TTF
        mimetype        : application/x-truetype-font
  Stream #0:8: Attachment: ttf
      Metadata:
        filename        : ARIALBD_0.TTF
        mimetype        : application/x-truetype-font
  Stream #0:9: Attachment: ttf
      Metadata:
        filename        : ARIALBI.TTF
        mimetype        : application/x-truetype-font
  Stream #0:10: Attachment: ttf
      Metadata:
        filename        : ARIALBI_0.TTF
        mimetype        : application/x-truetype-font
  Stream #0:11: Attachment: ttf
      Metadata:
        filename        : ARIALI.TTF
        mimetype        : application/x-truetype-font
  Stream #0:12: Attachment: ttf
      Metadata:
        filename        : ARIALI_0.TTF
        mimetype        : application/x-truetype-font
  Stream #0:13: Attachment: ttf
      Metadata:
        filename        : ARIALN.TTF
        mimetype        : application/x-truetype-font
  Stream #0:14: Attachment: ttf
      Metadata:
        filename        : ARIALN_0.TTF
        mimetype        : application/x-truetype-font
  Stream #0:15: Attachment: ttf
      Metadata:
        filename        : ARIALNB.TTF
        mimetype        : application/x-truetype-font
  Stream #0:16: Attachment: ttf
      Metadata:
        filename        : ARIALNBI.TTF
        mimetype        : application/x-truetype-font
  Stream #0:17: Attachment: ttf
      Metadata:
        filename        : ARIALNI.TTF
        mimetype        : application/x-truetype-font
  Stream #0:18: Attachment: ttf
      Metadata:
        filename        : ARIBLK.TTF
        mimetype        : application/x-truetype-font
  Stream #0:19: Attachment: ttf
      Metadata:
        filename        : ARIBLK_0.TTF
        mimetype        : application/x-truetype-font
  Stream #0:20: Attachment: ttf
      Metadata:
        filename        : ARLEKINO.TTF
        mimetype        : application/x-truetype-font
  Stream #0:21: Attachment: ttf
      Metadata:
        filename        : BOOKOS.TTF
        mimetype        : application/x-truetype-font
  Stream #0:22: Attachment: ttf
      Metadata:
        filename        : BOOKOS_0.TTF
        mimetype        : application/x-truetype-font
  Stream #0:23: Attachment: ttf
      Metadata:
        filename        : BOOKOSB.TTF
        mimetype        : application/x-truetype-font
  Stream #0:24: Attachment: ttf
      Metadata:
        filename        : BOOKOSBI.TTF
        mimetype        : application/x-truetype-font
  Stream #0:25: Attachment: ttf
      Metadata:
        filename        : BOOKOSI.TTF
        mimetype        : application/x-truetype-font
  Stream #0:26: Attachment: ttf
      Metadata:
        filename        : Roboto-Medium.ttf
        mimetype        : application/x-truetype-font
Input #1, matroska,webm, from 'F:\Convert\files\Dungeon_ni_Deai_wo_Motomeru_no_wa_Machigatteiru_no_Darou_ka_V_[01]_[AniLibria]_[WEBRip_1080p].mkv':
  Metadata:
    encoder         : libebml v1.3.10 + libmatroska v1.5.2
    creation_time   : 2024-10-04T13:48:57.000000Z
  Duration: 00:23:42.42, start: 0.000000, bitrate: 5386 kb/s
  Stream #1:0(jpn): Video: h264 (High), yuv420p(progressive), 1920x1080 [SAR 1:1 DAR 16:9], 24 fps, 24 tbr, 1k tbn (default) (forced)
      Metadata:
        BPS-eng         : 5014079
        DURATION-eng    : 00:23:42.417000000
        NUMBER_OF_FRAMES-eng: 34138
        NUMBER_OF_BYTES-eng: 891513907
        _STATISTICS_WRITING_APP-eng: mkvmerge v45.0.0 ('Heaven in Pennies') 64-bit
        _STATISTICS_WRITING_DATE_UTC-eng: 2024-10-04 13:48:57
        _STATISTICS_TAGS-eng: BPS DURATION NUMBER_OF_FRAMES NUMBER_OF_BYTES
  Stream #1:1(rus): Audio: aac (LC), 48000 Hz, stereo, fltp (default) (forced)
      Metadata:
        title           : AniLibria
        BPS-eng         : 192088
        DURATION-eng    : 00:23:42.400000000
        NUMBER_OF_FRAMES-eng: 66675
        NUMBER_OF_BYTES-eng: 34153247
        _STATISTICS_WRITING_APP-eng: mkvmerge v45.0.0 ('Heaven in Pennies') 64-bit
        _STATISTICS_WRITING_DATE_UTC-eng: 2024-10-04 13:48:57
        _STATISTICS_TAGS-eng: BPS DURATION NUMBER_OF_FRAMES NUMBER_OF_BYTES
  Stream #1:2(jpn): Audio: aac (LC), 48000 Hz, stereo, fltp
      Metadata:
        title           : Original
        BPS-eng         : 128824
        DURATION-eng    : 00:23:42.421000000
        NUMBER_OF_FRAMES-eng: 66676
        NUMBER_OF_BYTES-eng: 22905301
        _STATISTICS_WRITING_APP-eng: mkvmerge v45.0.0 ('Heaven in Pennies') 64-bit
        _STATISTICS_WRITING_DATE_UTC-eng: 2024-10-04 13:48:57
        _STATISTICS_TAGS-eng: BPS DURATION NUMBER_OF_FRAMES NUMBER_OF_BYTES
  Stream #1:3(rus): Subtitle: ass (ssa) (default) (forced)
      Metadata:
        title           : Надписи
        BPS-eng         : 142
        DURATION-eng    : 00:22:42.440000000
        NUMBER_OF_FRAMES-eng: 88
        NUMBER_OF_BYTES-eng: 24274
        _STATISTICS_WRITING_APP-eng: mkvmerge v45.0.0 ('Heaven in Pennies') 64-bit
        _STATISTICS_WRITING_DATE_UTC-eng: 2024-10-04 13:48:57
        _STATISTICS_TAGS-eng: BPS DURATION NUMBER_OF_FRAMES NUMBER_OF_BYTES
  Stream #1:4(rus): Subtitle: ass (ssa)
      Metadata:
        title           : Полные
        BPS-eng         : 303
        DURATION-eng    : 00:23:34.040000000
        NUMBER_OF_FRAMES-eng: 463
        NUMBER_OF_BYTES-eng: 53572
        _STATISTICS_WRITING_APP-eng: mkvmerge v45.0.0 ('Heaven in Pennies') 64-bit
        _STATISTICS_WRITING_DATE_UTC-eng: 2024-10-04 13:48:57
        _STATISTICS_TAGS-eng: BPS DURATION NUMBER_OF_FRAMES NUMBER_OF_BYTES
  Stream #1:5: Attachment: ttf
      Metadata:
        filename        : 10352_0.TTF
        mimetype        : application/x-truetype-font
  Stream #1:6: Attachment: ttf
      Metadata:
        filename        : ARIAL.TTF
        mimetype        : application/x-truetype-font
  Stream #1:7: Attachment: ttf
      Metadata:
        filename        : ARIAL_4.TTF
        mimetype        : application/x-truetype-font
  Stream #1:8: Attachment: ttf
      Metadata:
        filename        : ARIALBD.TTF
        mimetype        : application/x-truetype-font
  Stream #1:9: Attachment: ttf
      Metadata:
        filename        : ARIALBD_0.TTF
        mimetype        : application/x-truetype-font
  Stream #1:10: Attachment: ttf
      Metadata:
        filename        : ARIALBI.TTF
        mimetype        : application/x-truetype-font
  Stream #1:11: Attachment: ttf
      Metadata:
        filename        : ARIALBI_0.TTF
        mimetype        : application/x-truetype-font
  Stream #1:12: Attachment: ttf
      Metadata:
        filename        : ARIALI.TTF
        mimetype        : application/x-truetype-font
  Stream #1:13: Attachment: ttf
      Metadata:
        filename        : ARIALI_0.TTF
        mimetype        : application/x-truetype-font
  Stream #1:14: Attachment: ttf
      Metadata:
        filename        : ARIALN.TTF
        mimetype        : application/x-truetype-font
  Stream #1:15: Attachment: ttf
      Metadata:
        filename        : ARIALN_0.TTF
        mimetype        : application/x-truetype-font
  Stream #1:16: Attachment: ttf
      Metadata:
        filename        : ARIALNB.TTF
        mimetype        : application/x-truetype-font
  Stream #1:17: Attachment: ttf
      Metadata:
        filename        : ARIALNBI.TTF
        mimetype        : application/x-truetype-font
  Stream #1:18: Attachment: ttf
      Metadata:
        filename        : ARIALNI.TTF
        mimetype        : application/x-truetype-font
  Stream #1:19: Attachment: ttf
      Metadata:
        filename        : ARIBLK.TTF
        mimetype        : application/x-truetype-font
  Stream #1:20: Attachment: ttf
      Metadata:
        filename        : ARIBLK_0.TTF
        mimetype        : application/x-truetype-font
  Stream #1:21: Attachment: ttf
      Metadata:
        filename        : ARLEKINO.TTF
        mimetype        : application/x-truetype-font
  Stream #1:22: Attachment: ttf
      Metadata:
        filename        : BOOKOS.TTF
        mimetype        : application/x-truetype-font
  Stream #1:23: Attachment: ttf
      Metadata:
        filename        : BOOKOS_0.TTF
        mimetype        : application/x-truetype-font
  Stream #1:24: Attachment: ttf
      Metadata:
        filename        : BOOKOSB.TTF
        mimetype        : application/x-truetype-font
  Stream #1:25: Attachment: ttf
      Metadata:
        filename        : BOOKOSBI.TTF
        mimetype        : application/x-truetype-font
  Stream #1:26: Attachment: ttf
      Metadata:
        filename        : BOOKOSI.TTF
        mimetype        : application/x-truetype-font
  Stream #1:27: Attachment: ttf
      Metadata:
        filename        : Roboto-Medium.ttf
        mimetype        : application/x-truetype-font
Stream mapping:
  Stream #0:0 (hevc) -> settb:default
  Stream #1:0 (h264) -> settb:default
  ssim:default -> Stream #0:0 (wrapped_avframe)
  Stream #0:1 -> #0:1 (aac (native) -> pcm_s16le (native))
Output #0, null, to 'pipe:':
  Metadata:
    encoder         : Lavf61.7.100
  Stream #0:0: Video: wrapped_avframe, yuv420p10le(tv, progressive), 1920x1080 [SAR 1:1 DAR 16:9], q=2-31, 200 kb/s, 24 fps, 24 tbn
      Metadata:
        encoder         : Lavc61.19.100 wrapped_avframe
  Stream #0:1(rus): Audio: pcm_s16le, 48000 Hz, stereo, s16, 1536 kb/s (default) (forced)
      Metadata:
        title           : AniLibria
        _STATISTICS_TAGS: BPS DURATION NUMBER_OF_FRAMES NUMBER_OF_BYTES
        BPS             : 194199
        DURATION        : 00:23:42.399000000
        NUMBER_OF_FRAMES: 66676
        NUMBER_OF_BYTES : 34528622
        _STATISTICS_WRITING_APP: mkvpropedit v94.0 ('Initiate') 64-bit
        _STATISTICS_WRITING_DATE_UTC: 2026-04-02 10:09:54
        encoder         : Lavc61.19.100 pcm_s16le
frame=  181 fps=0.0 q=-0.0 size=N/A time=00:00:07.54 bitrate=N/A speed=14.4x    frame=  377 fps=364 q=-0.0 size=N/A time=00:00:15.70 bitrate=N/A speed=15.2x    frame=  576 fps=369 q=-0.0 size=N/A time=00:00:24.00 bitrate=N/A speed=15.4x    frame=  797 fps=385 q=-0.0 size=N/A time=00:00:33.20 bitrate=N/A speed=  16x    frame= 1019 fps=395 q=-0.0 size=N/A time=00:00:42.45 bitrate=N/A speed=16.5x    frame= 1252 fps=403 q=-0.0 size=N/A time=00:00:52.16 bitrate=N/A speed=16.8x    frame= 1445 fps=399 q=-0.0 size=N/A time=00:01:00.20 bitrate=N/A speed=16.6x    frame= 1638 fps=397 q=-0.0 size=N/A time=00:01:08.25 bitrate=N/A speed=16.5x    frame= 1806 fps=389 q=-0.0 size=N/A time=00:01:15.25 bitrate=N/A speed=16.2x    frame= 1986 fps=384 q=-0.0 size=N/A time=00:01:22.75 bitrate=N/A speed=  16x    frame= 2175 fps=383 q=-0.0 size=N/A time=00:01:30.62 bitrate=N/A speed=  16x    frame= 2365 fps=381 q=-0.0 size=N/A time=00:01:38.54 bitrate=N/A speed=15.9x    frame= 2552 fps=380 q=-0.0 size=N/A time=00:01:46.33 bitrate=N/A speed=15.9x    frame= 2710 fps=375 q=-0.0 size=N/A time=00:01:52.91 bitrate=N/A speed=15.6x    frame= 2857 fps=369 q=-0.0 size=N/A time=00:01:59.04 bitrate=N/A speed=15.4x    frame= 3044 fps=369 q=-0.0 size=N/A time=00:02:06.83 bitrate=N/A speed=15.4x    frame= 3226 fps=368 q=-0.0 size=N/A time=00:02:14.41 bitrate=N/A speed=15.3x    frame= 3419 fps=368 q=-0.0 size=N/A time=00:02:22.45 bitrate=N/A speed=15.3x    frame= 3645 fps=372 q=-0.0 size=N/A time=00:02:31.87 bitrate=N/A speed=15.5x    frame= 3878 fps=376 q=-0.0 size=N/A time=00:02:41.58 bitrate=N/A speed=15.7x    frame= 4080 fps=377 q=-0.0 size=N/A time=00:02:50.00 bitrate=N/A speed=15.7x    frame= 4317 fps=380 q=-0.0 size=N/A time=00:02:59.87 bitrate=N/A speed=15.8x    frame= 4528 fps=382 q=-0.0 size=N/A time=00:03:08.66 bitrate=N/A speed=15.9x    frame= 4748 fps=384 q=-0.0 size=N/A time=00:03:17.83 bitrate=N/A speed=  16x    frame= 4989 fps=387 q=-0.0 size=N/A time=00:03:27.87 bitrate=N/A speed=16.1x    frame= 5204 fps=388 q=-0.0 size=N/A time=00:03:36.83 bitrate=N/A speed=16.2x    frame= 5435 fps=390 q=-0.0 size=N/A time=00:03:46.45 bitrate=N/A speed=16.3x    frame= 5634 fps=390 q=-0.0 size=N/A time=00:03:54.75 bitrate=N/A speed=16.3x    frame= 5859 fps=392 q=-0.0 size=N/A time=00:04:04.12 bitrate=N/A speed=16.3x    frame= 6080 fps=393 q=-0.0 size=N/A time=00:04:13.33 bitrate=N/A speed=16.4x    frame= 6284 fps=393 q=-0.0 size=N/A time=00:04:21.83 bitrate=N/A speed=16.4x    frame= 6503 fps=394 q=-0.0 size=N/A time=00:04:30.95 bitrate=N/A speed=16.4x    frame= 6728 fps=395 q=-0.0 size=N/A time=00:04:40.37 bitrate=N/A speed=16.5x    frame= 6923 fps=395 q=-0.0 size=N/A time=00:04:48.45 bitrate=N/A speed=16.4x    frame= 7164 fps=397 q=-0.0 size=N/A time=00:04:58.50 bitrate=N/A speed=16.5x    frame= 7399 fps=398 q=-0.0 size=N/A time=00:05:08.29 bitrate=N/A speed=16.6x    frame= 7638 fps=400 q=-0.0 size=N/A time=00:05:18.25 bitrate=N/A speed=16.7x    frame= 7866 fps=401 q=-0.0 size=N/A time=00:05:27.75 bitrate=N/A speed=16.7x    frame= 8083 fps=402 q=-0.0 size=N/A time=00:05:36.79 bitrate=N/A speed=16.7x    frame= 8307 fps=403 q=-0.0 size=N/A time=00:05:46.12 bitrate=N/A speed=16.8x    frame= 8527 fps=403 q=-0.0 size=N/A time=00:05:55.29 bitrate=N/A speed=16.8x    frame= 8752 fps=404 q=-0.0 size=N/A time=00:06:04.66 bitrate=N/A speed=16.8x    frame= 8995 fps=406 q=-0.0 size=N/A time=00:06:14.79 bitrate=N/A speed=16.9x    frame= 9215 fps=406 q=-0.0 size=N/A time=00:06:23.95 bitrate=N/A speed=16.9x    frame= 9433 fps=407 q=-0.0 size=N/A time=00:06:33.04 bitrate=N/A speed=16.9x    frame= 9678 fps=408 q=-0.0 size=N/A time=00:06:43.25 bitrate=N/A speed=  17x    frame= 9900 fps=408 q=-0.0 size=N/A time=00:06:52.50 bitrate=N/A speed=  17x    frame=10130 fps=409 q=-0.0 size=N/A time=00:07:02.08 bitrate=N/A speed=  17x    frame=10367 fps=410 q=-0.0 size=N/A time=00:07:11.95 bitrate=N/A speed=17.1x    frame=10592 fps=411 q=-0.0 size=N/A time=00:07:21.33 bitrate=N/A speed=17.1x    frame=10822 fps=411 q=-0.0 size=N/A time=00:07:30.91 bitrate=N/A speed=17.1x    frame=11016 fps=411 q=-0.0 size=N/A time=00:07:39.00 bitrate=N/A speed=17.1x    frame=11248 fps=412 q=-0.0 size=N/A time=00:07:48.66 bitrate=N/A speed=17.1x    frame=11479 fps=412 q=-0.0 size=N/A time=00:07:58.29 bitrate=N/A speed=17.2x    frame=11694 fps=412 q=-0.0 size=N/A time=00:08:07.25 bitrate=N/A speed=17.2x    frame=11923 fps=413 q=-0.0 size=N/A time=00:08:16.79 bitrate=N/A speed=17.2x    frame=12156 fps=414 q=-0.0 size=N/A time=00:08:26.50 bitrate=N/A speed=17.2x    frame=12404 fps=415 q=-0.0 size=N/A time=00:08:36.83 bitrate=N/A speed=17.3x    frame=12642 fps=415 q=-0.0 size=N/A time=00:08:46.75 bitrate=N/A speed=17.3x    frame=12872 fps=416 q=-0.0 size=N/A time=00:08:56.33 bitrate=N/A speed=17.3x    frame=13109 fps=417 q=-0.0 size=N/A time=00:09:06.20 bitrate=N/A speed=17.4x    frame=13350 fps=417 q=-0.0 size=N/A time=00:09:16.25 bitrate=N/A speed=17.4x    frame=13558 fps=417 q=-0.0 size=N/A time=00:09:24.91 bitrate=N/A speed=17.4x    frame=13783 fps=418 q=-0.0 size=N/A time=00:09:34.29 bitrate=N/A speed=17.4x    frame=14008 fps=418 q=-0.0 size=N/A time=00:09:43.66 bitrate=N/A speed=17.4x    frame=14251 fps=419 q=-0.0 size=N/A time=00:09:53.79 bitrate=N/A speed=17.4x    frame=14479 fps=419 q=-0.0 size=N/A time=00:10:03.29 bitrate=N/A speed=17.5x    frame=14715 fps=420 q=-0.0 size=N/A time=00:10:13.12 bitrate=N/A speed=17.5x    frame=14953 fps=420 q=-0.0 size=N/A time=00:10:23.04 bitrate=N/A speed=17.5x    frame=15198 fps=421 q=-0.0 size=N/A time=00:10:33.25 bitrate=N/A speed=17.5x    frame=15425 fps=421 q=-0.0 size=N/A time=00:10:42.70 bitrate=N/A speed=17.6x    frame=15645 fps=421 q=-0.0 size=N/A time=00:10:51.87 bitrate=N/A speed=17.6x    frame=15868 fps=422 q=-0.0 size=N/A time=00:11:01.16 bitrate=N/A speed=17.6x    frame=16118 fps=422 q=-0.0 size=N/A time=00:11:11.58 bitrate=N/A speed=17.6x    frame=16347 fps=423 q=-0.0 size=N/A time=00:11:21.12 bitrate=N/A speed=17.6x    frame=16575 fps=423 q=-0.0 size=N/A time=00:11:30.62 bitrate=N/A speed=17.6x    frame=16813 fps=423 q=-0.0 size=N/A time=00:11:40.54 bitrate=N/A speed=17.6x    frame=17051 fps=424 q=-0.0 size=N/A time=00:11:50.45 bitrate=N/A speed=17.7x    frame=17277 fps=424 q=-0.0 size=N/A time=00:11:59.87 bitrate=N/A speed=17.7x    frame=17516 fps=425 q=-0.0 size=N/A time=00:12:09.83 bitrate=N/A speed=17.7x    frame=17737 fps=425 q=-0.0 size=N/A time=00:12:19.04 bitrate=N/A speed=17.7x    frame=17963 fps=425 q=-0.0 size=N/A time=00:12:28.45 bitrate=N/A speed=17.7x    frame=18190 fps=425 q=-0.0 size=N/A time=00:12:37.91 bitrate=N/A speed=17.7x    frame=18394 fps=425 q=-0.0 size=N/A time=00:12:46.41 bitrate=N/A speed=17.7x    frame=18615 fps=425 q=-0.0 size=N/A time=00:12:55.62 bitrate=N/A speed=17.7x    frame=18850 fps=425 q=-0.0 size=N/A time=00:13:05.41 bitrate=N/A speed=17.7x    frame=19080 fps=425 q=-0.0 size=N/A time=00:13:15.00 bitrate=N/A speed=17.7x    frame=19308 fps=425 q=-0.0 size=N/A time=00:13:24.50 bitrate=N/A speed=17.7x    frame=19542 fps=426 q=-0.0 size=N/A time=00:13:34.25 bitrate=N/A speed=17.7x    frame=19779 fps=426 q=-0.0 size=N/A time=00:13:44.12 bitrate=N/A speed=17.8x    frame=20010 fps=426 q=-0.0 size=N/A time=00:13:53.75 bitrate=N/A speed=17.8x    frame=20247 fps=427 q=-0.0 size=N/A time=00:14:03.62 bitrate=N/A speed=17.8x    frame=20488 fps=427 q=-0.0 size=N/A time=00:14:13.66 bitrate=N/A speed=17.8x    frame=20721 fps=427 q=-0.0 size=N/A time=00:14:23.37 bitrate=N/A speed=17.8x    frame=20928 fps=427 q=-0.0 size=N/A time=00:14:32.00 bitrate=N/A speed=17.8x    frame=21147 fps=427 q=-0.0 size=N/A time=00:14:41.12 bitrate=N/A speed=17.8x    frame=21363 fps=427 q=-0.0 size=N/A time=00:14:50.12 bitrate=N/A speed=17.8x    frame=21597 fps=427 q=-0.0 size=N/A time=00:14:59.87 bitrate=N/A speed=17.8x    frame=21838 fps=428 q=-0.0 size=N/A time=00:15:09.91 bitrate=N/A speed=17.8x    frame=22062 fps=428 q=-0.0 size=N/A time=00:15:19.25 bitrate=N/A speed=17.8x    frame=22274 fps=427 q=-0.0 size=N/A time=00:15:28.08 bitrate=N/A speed=17.8x    frame=22493 fps=427 q=-0.0 size=N/A time=00:15:37.20 bitrate=N/A speed=17.8x    frame=22719 fps=428 q=-0.0 size=N/A time=00:15:46.62 bitrate=N/A speed=17.8x    frame=22953 fps=428 q=-0.0 size=N/A time=00:15:56.37 bitrate=N/A speed=17.8x    frame=23181 fps=428 q=-0.0 size=N/A time=00:16:05.87 bitrate=N/A speed=17.8x    frame=23416 fps=428 q=-0.0 size=N/A time=00:16:15.66 bitrate=N/A speed=17.8x    frame=23634 fps=428 q=-0.0 size=N/A time=00:16:24.75 bitrate=N/A speed=17.8x    frame=23862 fps=428 q=-0.0 size=N/A time=00:16:34.25 bitrate=N/A speed=17.8x    frame=24093 fps=428 q=-0.0 size=N/A time=00:16:43.87 bitrate=N/A speed=17.9x    frame=24331 fps=429 q=-0.0 size=N/A time=00:16:53.79 bitrate=N/A speed=17.9x    frame=24564 fps=429 q=-0.0 size=N/A time=00:17:03.50 bitrate=N/A speed=17.9x    frame=24792 fps=429 q=-0.0 size=N/A time=00:17:13.00 bitrate=N/A speed=17.9x    frame=25020 fps=429 q=-0.0 size=N/A time=00:17:22.50 bitrate=N/A speed=17.9x    frame=25250 fps=429 q=-0.0 size=N/A time=00:17:32.08 bitrate=N/A speed=17.9x    frame=25485 fps=430 q=-0.0 size=N/A time=00:17:41.87 bitrate=N/A speed=17.9x    frame=25685 fps=429 q=-0.0 size=N/A time=00:17:50.20 bitrate=N/A speed=17.9x    frame=25917 fps=429 q=-0.0 size=N/A time=00:17:59.87 bitrate=N/A speed=17.9x    frame=26119 fps=429 q=-0.0 size=N/A time=00:18:08.29 bitrate=N/A speed=17.9x    frame=26333 fps=429 q=-0.0 size=N/A time=00:18:17.20 bitrate=N/A speed=17.9x    frame=26542 fps=429 q=-0.0 size=N/A time=00:18:25.91 bitrate=N/A speed=17.9x    frame=26764 fps=429 q=-0.0 size=N/A time=00:18:35.16 bitrate=N/A speed=17.9x    frame=26956 fps=428 q=-0.0 size=N/A time=00:18:43.16 bitrate=N/A speed=17.8x    frame=27164 fps=428 q=-0.0 size=N/A time=00:18:51.83 bitrate=N/A speed=17.8x    frame=27369 fps=428 q=-0.0 size=N/A time=00:19:00.37 bitrate=N/A speed=17.8x    frame=27593 fps=428 q=-0.0 size=N/A time=00:19:09.70 bitrate=N/A speed=17.8x    frame=27805 fps=428 q=-0.0 size=N/A time=00:19:18.54 bitrate=N/A speed=17.8x    frame=27931 fps=426 q=-0.0 size=N/A time=00:19:23.79 bitrate=N/A speed=17.8x    frame=28120 fps=426 q=-0.0 size=N/A time=00:19:31.66 bitrate=N/A speed=17.7x    frame=28299 fps=425 q=-0.0 size=N/A time=00:19:39.12 bitrate=N/A speed=17.7x    frame=28473 fps=425 q=-0.0 size=N/A time=00:19:46.37 bitrate=N/A speed=17.7x    frame=28655 fps=424 q=-0.0 size=N/A time=00:19:53.95 bitrate=N/A speed=17.7x    frame=28865 fps=424 q=-0.0 size=N/A time=00:20:02.70 bitrate=N/A speed=17.7x    frame=29063 fps=424 q=-0.0 size=N/A time=00:20:10.95 bitrate=N/A speed=17.6x    frame=29273 fps=423 q=-0.0 size=N/A time=00:20:19.70 bitrate=N/A speed=17.6x    frame=29480 fps=423 q=-0.0 size=N/A time=00:20:28.33 bitrate=N/A speed=17.6x    frame=29647 fps=423 q=-0.0 size=N/A time=00:20:35.29 bitrate=N/A speed=17.6x    frame=29799 fps=422 q=-0.0 size=N/A time=00:20:41.62 bitrate=N/A speed=17.6x    frame=29967 fps=421 q=-0.0 size=N/A time=00:20:48.62 bitrate=N/A speed=17.5x    frame=30131 fps=420 q=-0.0 size=N/A time=00:20:55.45 bitrate=N/A speed=17.5x    frame=30314 fps=420 q=-0.0 size=N/A time=00:21:03.08 bitrate=N/A speed=17.5x    frame=30493 fps=419 q=-0.0 size=N/A time=00:21:10.54 bitrate=N/A speed=17.5x    frame=30670 fps=419 q=-0.0 size=N/A time=00:21:17.91 bitrate=N/A speed=17.4x    frame=30829 fps=418 q=-0.0 size=N/A time=00:21:24.54 bitrate=N/A speed=17.4x    frame=31000 fps=417 q=-0.0 size=N/A time=00:21:31.66 bitrate=N/A speed=17.4x    frame=31169 fps=417 q=-0.0 size=N/A time=00:21:38.70 bitrate=N/A speed=17.4x    frame=31349 fps=416 q=-0.0 size=N/A time=00:21:46.20 bitrate=N/A speed=17.3x    frame=31538 fps=416 q=-0.0 size=N/A time=00:21:54.08 bitrate=N/A speed=17.3x    frame=31751 fps=416 q=-0.0 size=N/A time=00:22:02.95 bitrate=N/A speed=17.3x    frame=31968 fps=416 q=-0.0 size=N/A time=00:22:12.00 bitrate=N/A speed=17.3x    frame=32193 fps=416 q=-0.0 size=N/A time=00:22:21.37 bitrate=N/A speed=17.3x    frame=32427 fps=416 q=-0.0 size=N/A time=00:22:31.12 bitrate=N/A speed=17.3x    frame=32658 fps=417 q=-0.0 size=N/A time=00:22:40.75 bitrate=N/A speed=17.4x    frame=32899 fps=417 q=-0.0 size=N/A time=00:22:50.79 bitrate=N/A speed=17.4x    frame=33142 fps=417 q=-0.0 size=N/A time=00:23:00.91 bitrate=N/A speed=17.4x    frame=33365 fps=417 q=-0.0 size=N/A time=00:23:10.20 bitrate=N/A speed=17.4x    frame=33595 fps=417 q=-0.0 size=N/A time=00:23:19.79 bitrate=N/A speed=17.4x    frame=33837 fps=418 q=-0.0 size=N/A time=00:23:29.87 bitrate=N/A speed=17.4x    frame=34042 fps=418 q=-0.0 size=N/A time=00:23:38.41 bitrate=N/A speed=17.4x    [Parsed_ssim_14 @ 000002192a5cf880] SSIM Y:0.994168 (22.341566) U:0.994621 (22.693159) V:0.995139 (23.132542) All:0.994405 (22.522077)
[out#0/null @ 00000219265acfc0] video:14669KiB audio:266704KiB subtitle:0KiB other streams:0KiB global headers:0KiB muxing overhead: unknown
frame=34138 fps=418 q=-0.0 Lsize=N/A time=00:23:42.41 bitrate=N/A speed=17.4x    
